<svg width="36" height="36" viewBox="0 0 36 36" fill="none" xmlns="http://www.w3.org/2000/svg">
<g clip-path="url(#clip0_7_173)">
<mask id="mask0_7_173" style="mask-type:luminance" maskUnits="userSpaceOnUse" x="0" y="0" width="36" height="36">
<path d="M36 0H0V36H36V0Z" fill="white"/>
</mask>
<g mask="url(#mask0_7_173)">
<path d="M36 0H0V36H36V0Z" fill="white"/>
<g filter="url(#filter0_d_7_173)">
<path d="M21.5047 18.5199L21.1147 17.8793C20.8623 18.033 20.7237 18.3205 20.7607 18.6138C20.7976 18.9069 21.0033 19.1511 21.286 19.2373L21.5047 18.5199ZM14.4951 18.5199L14.7138 19.2373C14.9965 19.1511 15.2022 18.9069 15.2392 18.6138C15.2761 18.3205 15.1375 18.033 14.885 17.8793L14.4951 18.5199ZM24 12.75C24 14.922 22.8463 16.8252 21.1147 17.8793L21.8947 19.1605C24.0547 17.8456 25.5 15.467 25.5 12.75H24ZM18 6.75C21.3136 6.75 24 9.43629 24 12.75H25.5C25.5 8.60787 22.1421 5.25 18 5.25V6.75ZM11.9999 12.75C11.9999 9.43629 14.6862 6.75 18 6.75V5.25C13.8578 5.25 10.4999 8.60787 10.4999 12.75H11.9999ZM14.885 17.8793C13.1535 16.8252 11.9999 14.922 11.9999 12.75H10.4999C10.4999 15.467 11.9451 17.8456 14.1051 19.1605L14.885 17.8793ZM14.2763 17.8025C9.5412 19.2464 5.9753 23.3706 5.34812 28.4103L6.83663 28.5956C7.38953 24.1527 10.5357 20.5113 14.7138 19.2373L14.2763 17.8025ZM5.34812 28.4103C5.18235 29.7423 6.28578 30.75 7.4999 30.75V29.25C7.05717 29.25 6.79778 28.9079 6.83663 28.5956L5.34812 28.4103ZM7.4999 30.75H28.5V29.25H7.4999V30.75ZM28.5 30.75C29.7141 30.75 30.8175 29.7423 30.6517 28.4103L29.1631 28.5956C29.202 28.9079 28.9426 29.25 28.5 29.25V30.75ZM30.6517 28.4103C30.0246 23.3706 26.4586 19.2464 21.7234 17.8025L21.286 19.2373C25.4641 20.5113 28.6102 24.1527 29.1631 28.5956L30.6517 28.4103Z" fill="black"/>
</g>
</g>
</g>
<defs>
<filter id="filter0_d_7_173" x="2.83154" y="5.25" width="30.3368" height="30.5" filterUnits="userSpaceOnUse" color-interpolation-filters="sRGB">
<feFlood flood-opacity="0" result="BackgroundImageFix"/>
<feColorMatrix in="SourceAlpha" type="matrix" values="0 0 0 0 0 0 0 0 0 0 0 0 0 0 0 0 0 0 127 0" result="hardAlpha"/>
<feOffset dy="2.5"/>
<feGaussianBlur stdDeviation="1.25"/>
<feColorMatrix type="matrix" values="0 0 0 0 0 0 0 0 0 0 0 0 0 0 0 0 0 0 0.1 0"/>
<feBlend mode="normal" in2="BackgroundImageFix" result="effect1_dropShadow_7_173"/>
<feBlend mode="normal" in="SourceGraphic" in2="effect1_dropShadow_7_173" result="shape"/>
</filter>
<clipPath id="clip0_7_173">
<rect width="36" height="36" fill="white"/>
</clipPath>
</defs>
</svg>
